<svg xmlns="http://www.w3.org/2000/svg" width="1024" height="1024" viewBox="0 0 1024 1024"><defs><pattern id="px-dot" width="8" height="8" x="0" y="0" patternUnits="userSpaceOnUse"><rect width="8" height="8" fill="#111"/><rect width="1.5" height="1.5" x="0" y="0" fill="#1a1a1a"/></pattern><clipPath id="sq-clip"><rect width="820" height="820" x="102" y="102" rx="184.5" ry="184.5"/></clipPath></defs><rect width="820" height="820" x="102" y="102" fill="#111" rx="184.5" ry="184.5"/><rect width="1024" height="1024" x="0" y="0" fill="url(#px-dot)" clip-path="url(#sq-clip)"/><rect width="820" height="820" x="102" y="102" fill="none" stroke="#333" stroke-opacity=".5" stroke-width="2" rx="184.5" ry="184.5"/><g><path fill="#3a3228" d="M -220 -260 L -80 -260 L 20 240 L -120 240 Z" transform="translate(518 522) skewX(-8)"/><path fill="#3a3228" d="M 80 -260 L 220 -260 L 120 240 L -20 240 Z" transform="translate(518 522) skewX(-8)"/></g><g><path fill="#facc15" d="M -220 -260 L -80 -260 L 20 240 L -120 240 Z" transform="translate(512 512) skewX(-8)"/><path fill="#fffef5" d="M 80 -260 L 220 -260 L 120 240 L -20 240 Z" transform="translate(512 512) skewX(-8)"/></g></svg>